<svg width="49" height="49" viewBox="0 0 49 49" fill="none" xmlns="http://www.w3.org/2000/svg">
<path d="M48.6648 24.0341C48.6079 19.3971 47.227 14.8729 44.6848 10.9943C42.1426 7.11577 38.5452 4.04439 34.3161 2.14192C30.0866 0.239447 25.4018 -0.414876 20.8132 0.255963C16.2246 0.926833 11.9232 2.89491 8.41566 5.92852C4.90807 8.96209 2.34039 12.9348 1.01498 17.3788C-0.310396 21.8228 -0.338319 26.5529 0.934557 31.0123C2.20743 35.4717 4.72806 39.4742 8.19961 42.549C11.6711 45.6239 15.949 47.6426 20.5294 48.3674V31.1212H14.4461V24.0341H20.5294V18.6503C20.3886 17.3986 20.5242 16.1311 20.9269 14.9374C21.3297 13.7437 21.9894 12.653 22.8596 11.7422C23.7298 10.8313 24.7893 10.1226 25.9633 9.666C27.1374 9.20938 28.3976 9.01602 29.6544 9.09961C31.4788 9.12458 33.2989 9.28728 35.099 9.58628V15.6696H32.0573C31.5329 15.6035 31 15.656 30.4988 15.8234C29.9972 15.9908 29.5397 16.2687 29.1601 16.6366C28.7805 17.0045 28.4885 17.4531 28.3057 17.9489C28.1226 18.445 28.0536 18.9758 28.1031 19.502V24.0949H34.8557L33.7607 31.182H28.1336V48.2154C33.882 47.3062 39.1143 44.3667 42.8811 39.9302C46.6479 35.4936 48.6998 29.854 48.6648 24.0341Z" fill="#2D0608"/>
</svg>
