<svg width="49" height="49" viewBox="0 0 49 49" fill="none" xmlns="http://www.w3.org/2000/svg">
<g clip-path="url(#clip0_2148_133)">
<path d="M24.5 28.8067C26.8734 28.8067 28.8162 26.8735 28.8162 24.4905C28.8162 23.5526 28.5099 22.6817 28.0027 21.9735C27.218 20.8921 25.9451 20.1743 24.5096 20.1743C23.074 20.1743 21.8012 20.8825 21.0164 21.9735C20.5092 22.6817 20.2029 23.5526 20.2029 24.4905C20.1933 26.8735 22.1265 28.8067 24.5 28.8067Z" fill="#2D0608"/>
<path d="M33.9172 19.2268V15.6092V15.0732H33.3812L29.7637 15.0828L29.7828 19.2363L33.9172 19.2268Z" fill="#2D0608"/>
<path d="M31.1992 24.4999C31.1992 28.194 28.1941 31.1991 24.5 31.1991C20.8059 31.1991 17.8008 28.194 17.8008 24.4999C17.8008 23.6099 17.9826 22.7581 18.2984 21.9829H14.6426V32.0126C14.6426 33.3046 15.6953 34.3573 16.9873 34.3573H32.0127C33.3047 34.3573 34.3574 33.3046 34.3574 32.0126V21.9829H30.7016C31.027 22.7581 31.1992 23.6099 31.1992 24.4999Z" fill="#2D0608"/>
<path d="M24.5 0C10.9676 0 0 10.9676 0 24.5C0 38.0324 10.9676 49 24.5 49C38.0324 49 49 38.0324 49 24.5C49 10.9676 38.0324 0 24.5 0ZM36.75 21.983V32.0127C36.75 34.6254 34.6254 36.75 32.0127 36.75H16.9873C14.3746 36.75 12.25 34.6254 12.25 32.0127V21.983V16.9777C12.25 14.365 14.3746 12.2404 16.9873 12.2404H32.0127C34.6254 12.2404 36.75 14.365 36.75 16.9777V21.983Z" fill="#2D0608"/>
</g>
<defs>
<clipPath id="clip0_2148_133">
<rect width="49" height="49" fill="white"/>
</clipPath>
</defs>
</svg>
